<svg width="512" height="512" xmlns="http://www.w3.org/2000/svg" class="ionicon">
 <title>Basket</title>

 <g>
  <title>background</title>
  <rect fill="none" id="canvas_background" height="602" width="802" y="-1" x="-1"/>
 </g>
 <g>
  <title>Layer 1</title>
  <path id="svg_1" stroke-width="32" stroke-linejoin="round" stroke="currentColor" fill="none" d="m68.4,192a20.38,20.38 0 0 0 -20.4,20.2a17.87,17.87 0 0 0 0.8,5.5l51.7,182.3a40.46,40.46 0 0 0 39.1,29.5l232.8,0a40.88,40.88 0 0 0 39.3,-29.5l51.7,-182.3l0.6,-5.5a20.38,20.38 0 0 0 -20.4,-20.2l-375.2,0z"/>
  <path id="svg_2" d="m160,192l96,-128l96,128" stroke-width="32" stroke-linejoin="round" stroke="currentColor" fill="none"/>
  <line stroke-linecap="null" stroke-linejoin="round" id="svg_3" y2="427.45313" x2="182.5" y1="197.45313" x1="124.5" fill-opacity="null" stroke-opacity="null" stroke-width="32" stroke="currentColor" fill="none"/>
  <line stroke-linecap="null" stroke-linejoin="round" id="svg_4" y2="423.45313" x2="255" y1="195.45313" x1="254.5" fill-opacity="null" stroke-opacity="null" stroke-width="32" stroke="currentColor" fill="none"/>
  <line stroke-linecap="null" stroke-linejoin="round" id="svg_5" y2="427.45313" x2="327" y1="197.45313" x1="385" fill-opacity="null" stroke-opacity="null" stroke-width="32" stroke="currentColor" fill="none"/>
 </g>
</svg>